<?xml version="1.0" encoding="utf-8"?>
<!-- Generator: Adobe Illustrator 24.1.2, SVG Export Plug-In . SVG Version: 6.00 Build 0)  -->
<svg version="1.1" id="Ebene_1" xmlns="http://www.w3.org/2000/svg" xmlns:xlink="http://www.w3.org/1999/xlink" x="0px" y="0px"
	 viewBox="0 0 150 150" style="enable-background:new 0 0 150 150;" xml:space="preserve">
<style type="text/css">
	.st0{fill:#00374D;}
	.st1{fill:#FFFFFF;}
</style>
<circle class="st0" cx="75" cy="75" r="71.8"/>
<g>
	<path class="st1" d="M66.5,72.7c-3.5-3.5-7.1-7.1-10.4-10.4c-2.2-2.2-4.3-4.1-6.3-6.5c-1-1-2-1.6-3.3-1.4c-2,0.4-3-0.6-3.9-2.2
		c-1.6-3-3.3-5.7-4.9-8.3c-0.8-1.2-0.8-2.2,0.4-3.1c1.2-1,2.4-2.2,3.3-3.3c0.8-0.8,1.6-0.8,2.4-0.2c3.3,2,6.5,3.9,9.8,5.9
		c0.6,0.4,1.2,1.6,1.2,2.4c-0.2,2,0.6,3.3,2,4.7c5.5,5.3,10.8,10.8,16.5,16.5c0.8-1,1.4-1.8,2.2-2.6c2.6-2.6,5.1-5.1,7.7-7.9
		c0.4-0.4,0.8-1.4,0.6-2c-1.6-10.6,7.3-19.3,17.7-17.3c0.4,0,0.8,0.2,1.2,0.2c1.8,0.6,2.2,1.6,0.8,3c-1.6,1.8-3.3,3.3-4.9,5.1
		c-1.2,1.2-1.4,3.5,0,4.5c1.2,1.2,2.2,3.1,4.3,2.8c0.6-0.2,1.4-0.4,2-0.8c1.8-1.6,3.3-3.3,4.9-4.9c1.4-1.4,2.6-1.2,3.1,0.8
		c2.8,10.6-5.3,19.7-14.8,18.9c-2.8-0.2-4.5,0.4-6.3,2.4c-1.8,2.2-3.9,3.9-6.1,5.9c0.8,0.8,1.4,1.4,2.2,2c1-0.6,2-2,3.1-0.6
		c0.4,0.6,0,1.8-0.2,2.8c-0.2,0-0.4,0-0.6,0c3.3,3,6.7,6.1,9.8,9c3.3,3.1,6.9,6.3,10.2,9.4c3.9,3.5,4.1,9.4,0.4,13.2
		c-3.5,3.5-9.4,3.5-13-0.4c-6.3-6.7-12.4-13.4-18.5-20.1c-1,0.4-2,2-3,0.6c-0.4-0.6,0.2-2,0.2-3c0.2,0,0.4,0,0.6,0
		c-0.6-0.6-1.2-1.4-2-2.2c-2.8,2.8-5.5,5.5-8.3,8.3c-0.4,0.4-0.4,1.2-0.2,1.8c1.6,10.6-7.7,19.3-18.1,17.1c-0.4,0-0.6-0.2-1-0.2
		c-1.6-0.6-2-1.8-0.8-3c1.8-1.8,3.3-3.3,5.1-5.1c1.2-1.2,1.2-3.5,0-4.5c-1.2-1.2-2-3.1-4.1-2.8c-0.8,0.2-1.8,0.4-2.4,1
		c-1.6,1.6-3.1,3.1-4.7,4.7c-1.6,1.6-2.8,1.2-3.3-1c-2.8-10.6,6.3-20.3,17.1-18.5c0.6,0,1.4,0,1.8-0.4c3.3-3.3,6.7-6.7,10-10
		C66.3,73.2,66.5,73,66.5,72.7z M40,99.4c0.2-0.2,0.4-0.2,0.4-0.2c1.2-1.2,2.4-2.4,3.5-3.5s5.7-1.8,6.9-0.8c2.8,2.4,5.9,4.5,4.9,8.9
		c-0.2,0.8-0.6,1.8-1.2,2.6c-1.2,1.4-2.4,2.6-3.9,3.9c0.6,0,0.8,0.2,1,0.2c7.7,0.2,13.8-7.1,12-14.6c-0.4-1.6,0-2.8,1.2-3.9
		c9.2-9,18.5-18.3,27.5-27.5c1-1.2,2-1.4,3.5-1c4.9,1.2,9-0.4,12.2-4.3c1.8-2.4,2.6-5.1,2.2-8.3c-1.4,1-2.4,2.2-3.3,3.3
		c-1,1.2-2.2,1.4-3.5,1.6c-2.6,0.2-4.5-0.6-6.1-2.6c-0.4-0.6-1-1-1.6-1.6c-1.2-1.4-1.4-5.9-0.2-7.1c1.4-1.4,3-2.6,4.3-3.7
		c-0.2-0.2-0.2-0.4-0.4-0.6c-0.2,0-0.4,0-0.6-0.2c-7.9-0.4-13.8,7.1-12,14.6c0.4,1.6,0.2,2.6-1,3.5c-9.2,9-18.5,18.3-27.7,27.7
		c-1,1-2,1.4-3.5,1C46.8,84.9,39.2,91.3,40,99.4z M81.5,88.2c6.3,6.7,12.4,13.6,18.7,20.3c2.4,2.6,6.1,2.4,8.5,0.2
		c2.4-2.4,2.4-6.1,0-8.7c-0.8-0.8-1.6-1.4-2.4-2.2c-6.1-5.5-12-11-18.1-16.5C86,83.7,83.8,85.8,81.5,88.2z M40.2,42.6
		c1.6,2.6,3.1,5.1,4.5,7.7c0.6,1,1.2,1.4,2.2,1.2c2-0.4,3.1,0.6,4.5,2c5.3,5.5,10.6,10.8,16.1,16.1c0.4,0.4,0.8,0.8,1.2,1.2
		c0.8-0.6,1.6-1.2,2.4-1.8c-0.6-0.6-1-1.2-1.6-1.6C64.2,62,58.8,56.7,53.5,51.4c-1.2-1.2-2-2.4-1.8-4.1c0-0.6,0-1.6-0.4-1.8
		c-2.8-1.8-5.5-3.3-8.3-5.1C41.9,41,41.1,41.8,40.2,42.6z M84,77.4c-2.2,2.2-4.3,4.3-6.5,6.5c0.4,0.4,1,1.2,1.4,1.6
		c2.2-2.2,4.3-4.3,6.7-6.5C85,78.4,84.4,77.8,84,77.4z"/>
	<path class="st1" d="M84.2,64.2c1.4,0,2,1,1.6,2c-0.2,0.4-0.6,0.8-0.8,1.2C79.1,73.2,73.4,79,67.5,84.9c-0.2,0.2-0.6,0.6-1,0.8
		c-0.6,0-1.4,0.2-1.6-0.2c-0.4-0.4-0.4-1.2-0.4-1.8c0-0.4,0.4-0.6,0.8-1c5.9-5.9,11.6-11.6,17.5-17.5C83.4,64.8,84,64.4,84.2,64.2z"
		/>
	<path class="st1" d="M61.6,86.6c0.6,0.8,1.4,1.6,1.4,2c-0.2,0.6-1,1-1.4,1.6c-0.4-0.6-1.2-1-1.4-1.6C60.2,88,61,87.4,61.6,86.6z"/>
	<path class="st1" d="M90.7,61.4c-1,0.6-1.6,1.4-2,1.2c-0.6-0.2-1-1-1.6-1.4c0.6-0.4,1-1.2,1.6-1.4C89.3,59.9,89.9,60.9,90.7,61.4z"
		/>
	<path class="st1" d="M89.9,88.2c0.6,0.4,1.2,0.6,1.6,1c4.1,4.1,8.5,8.3,12.6,12.6c0.8,0.8,1.4,1.8,0.4,2.6c-1,1-1.8,0.2-2.6-0.4
		c-4.1-4.1-8.5-8.3-12.6-12.6c-0.4-0.4-0.6-1.4-0.6-2.2C88.7,88.8,89.5,88.6,89.9,88.2z"/>
</g>
</svg>
