<?xml version="1.0" encoding="utf-8"?>
<!-- Generator: Adobe Illustrator 24.1.2, SVG Export Plug-In . SVG Version: 6.00 Build 0)  -->
<svg version="1.1" id="Ebene_1" xmlns="http://www.w3.org/2000/svg" xmlns:xlink="http://www.w3.org/1999/xlink" x="0px" y="0px"
	 viewBox="0 0 1000 200" style="enable-background:new 0 0 1000 200;" xml:space="preserve">
<style type="text/css">
	.st0{fill:#003F59;}
	.st1{display:none;}
	.st2{display:inline;fill:#767676;}
	.st3{display:inline;fill:#0F2137;}
</style>
<g>
	<path class="st0" d="M117.1,157.5c-23.3,0-46.6,0-69.9,0c-13.8,0-25.8-9.4-29-22.8c-0.6-2.4-0.8-4.8-0.8-7.3c0-12.2,0-24.3,0-36.5
		c0-4.1,0.3-8.2,1.8-12c4.3-10.9,12.3-17.5,23.9-19.6c1.4-0.3,2.9-0.4,4.4-0.4c11.7,0,23.4,0,35.1,0c0.5,0,0.9-0.1,1.3-0.4
		c12-9.1,24-18.2,36-27.3c5.2-4,11.6-1.2,13.1,4c0.9,3.2-0.2,6.6-3,8.7c-7,5.3-14.1,10.7-21.1,16c-6.5,4.9-13.1,9.9-19.6,14.9
		c-0.4,0.3-0.8,0.4-1.3,0.4c-13.5,0-27,0-40.4,0c-5.6,0-9.7,2.7-12.4,7.6c-1.1,2-1.6,4.2-1.6,6.4c0,12.7,0,25.4,0,38.2
		c0,7.1,4.7,12.5,11.7,13.6c0.8,0.1,1.7,0.2,2.5,0.2c14.1,0,28.3,0,42.4,0c31.9-0.1,63.7-0.1,95.6,0c5.5,0,8.9-2.6,11.3-7.2
		c1.4-2.7,1.9-5.7,1.9-8.8c0-12.7,0-25.4,0-38.1c0-1.3,0.1-2.6-0.2-3.9c-1.2-4.9-5.5-8.3-10.6-8.3c-9.4,0-18.8,0-28.2,0
		c-4.1,0-7.6-3.3-7.9-7.6c-0.3-4.1,2.7-7.8,6.7-8.5c0.5-0.1,1.1-0.1,1.6-0.1c9.6,0,19.3-0.1,28.9,0c5,0.1,9.6,1.6,13.8,4.4
		c3.6,2.4,6.4,5.4,8.5,9.1c2.6,4.6,3.8,9.5,3.5,14.7c0,0.4,0,0.8,0,1.1c0,12.4,0,24.7,0,37.1c0,7.3-1.9,14.1-6,20.1
		c-4.2,6.1-9.8,10.1-17.1,11.5c-1.7,0.3-3.4,0.5-5.1,0.5C163.8,157.5,140.4,157.5,117.1,157.5C117.1,157.5,117.1,157.5,117.1,157.5z
		"/>
	<g>
		<path d="M313.3,73.3h23.9c22.4,0,38.3,14.3,38.3,34.6c0,20.2-15.9,34.7-38.3,34.7h-23.9V73.3z M337.8,133.2
			c16,0,27.2-10.5,27.2-25.4c0-14.8-11.2-25.3-27.2-25.3h-14.3v50.7H337.8z"/>
		<path d="M432.2,111v31.5h-9.8v-7.2c-3.8,5.4-11,8.4-17.3,8.4c-11.1,0-19.2-6.4-19.2-16.6c0-10.4,9.4-17.3,20.9-17.3
			c5.1,0,10.7,1.1,15.7,2.8V111c0-6.5-3-13.5-13.4-13.5c-5.1,0-10.2,2-14.7,4.3l-3.6-7.4c7.5-3.7,14-5.2,19.7-5.2
			C424.4,89.2,432.2,98.1,432.2,111z M422.4,126.2v-7c-4.2-1.3-9.1-2-14.2-2c-7,0-12.8,3.9-12.8,9.6c0,5.6,5,9.1,11.6,9.1
			C413.4,135.8,420.7,132.6,422.4,126.2z"/>
		<path d="M476.4,89.2v8.7c-10.8,0-18.4,5.9-19.3,15v29.6h-10V90.4h10v10C460.4,93.5,467.4,89.2,476.4,89.2z"/>
		<path d="M499.9,90.4h12.3v8.5h-12.3v43.6h-9.8V98.9h-7.9v-8.5h7.9v-6.2c0-8.4,5.6-14.2,13.7-14.2c3.7,0,7.6,1.4,10.4,3.7l-3.6,6.6
			c-1.1-1.1-3.1-1.9-5.3-1.9c-2.9,0-5.3,2.6-5.3,6.2V90.4z"/>
		<path d="M550.1,75.7c0-3.1,2.6-5.9,6-5.9c3.2,0,5.9,2.8,5.9,5.9c0,3.2-2.7,6-5.9,6C552.7,81.7,550.1,78.9,550.1,75.7z M551.1,90.4
			h10v52.1h-10V90.4z"/>
		<path d="M572.7,116.4c0-14.8,12.6-27.2,27.5-27.2c7.5,0,14.2,3.1,19.1,8.1l-6.7,6.2c-3.1-3.5-7.7-5.6-12.5-5.6
			c-9.5,0-17.3,8.5-17.3,18.5c0,10.2,7.9,18.6,17.4,18.6c4.8,0,9.5-2.2,12.7-5.8l6.8,6.1c-5,5.1-11.8,8.4-19.5,8.4
			C585.3,143.7,572.7,131.2,572.7,116.4z"/>
		<path d="M676.3,109.4v33.1h-9.8v-31.4c0-7.8-4.9-13.2-12-13.2c-7.9,0-14.4,5.5-14.4,12.3v32.3h-9.9V72.1h9.9v26.1
			c3.1-5.2,9.5-9,16.6-9C668.3,89.2,676.3,97.6,676.3,109.4z"/>
		<path d="M749.3,89.2v8.7c-10.8,0-18.4,5.9-19.3,15v29.6h-10V90.4h10v10C733.2,93.5,740.3,89.2,749.3,89.2z"/>
		<path d="M802.6,111v31.5h-9.8v-7.2c-3.8,5.4-11,8.4-17.3,8.4c-11.1,0-19.2-6.4-19.2-16.6c0-10.4,9.4-17.3,20.9-17.3
			c5.1,0,10.7,1.1,15.7,2.8V111c0-6.5-3-13.5-13.4-13.5c-5.1,0-10.2,2-14.7,4.3l-3.6-7.4c7.5-3.7,14-5.2,19.7-5.2
			C794.9,89.2,802.6,98.1,802.6,111z M792.9,126.2v-7c-4.2-1.3-9.1-2-14.2-2c-7,0-12.8,3.9-12.8,9.6c0,5.6,5,9.1,11.6,9.1
			C783.9,135.8,791.2,132.6,792.9,126.2z"/>
		<path d="M862.9,90.4v52.1h-10v-7.6c-3.1,5.1-9.5,8.8-16.5,8.8c-11.5,0-19.5-8.4-19.5-20.1V90.4h9.8v31.4c0,7.8,4.9,13.2,12,13.2
			c7.3,0,13.5-4.7,14.3-10.9V90.4H862.9z"/>
		<path d="M874,135.9l4.7-7.2c5.5,4,11.5,6.3,17.6,6.3c5.8,0,9.9-2.7,9.9-6.8c0-4.8-5.3-6.3-11.8-8.2c-12-3.3-17.9-6.7-17.9-15.2
			c-0.1-9.6,7.9-15.8,18.9-15.8c6.8,0,13.6,2.3,19.2,6l-4.4,7.4c-5-3.1-10.3-4.8-14.8-4.8c-5.1,0-9.2,2.2-9.2,6.1c0,4,3.2,5.2,12,8
			c8.6,2.5,17.7,5.3,17.7,15.7c0,9.9-8.4,16.1-19.7,16.1C888.6,143.7,880.2,141,874,135.9z"/>
		<path d="M938.3,103.5c11-0.8,18.7-5.6,18.7-11.6c0-5.5-4.7-10.7-12.5-10.7c-6.6,0-11.7,3.6-15.7,8.5l-6.2-6.2
			c5.5-6.6,13-11.4,23.1-11.4c13,0,21.7,8.3,21.7,18.8c0,9.1-8.1,17.2-19.3,19.6v11.1h-9.7V103.5z M936.4,136.9
			c0-3.4,2.9-6.5,6.7-6.5c3.6,0,6.5,3.1,6.5,6.5c0,3.7-2.9,6.9-6.5,6.9C939.3,143.7,936.4,140.6,936.4,136.9z"/>
	</g>
</g>
<g class="st1">
	<rect x="7.5" y="-246.9" class="st2" width="99" height="73.8"/>
	<rect x="7.5" y="-165.6" class="st3" width="99" height="73.8"/>
</g>
</svg>
