<?xml version="1.0" encoding="utf-8"?>
<!-- Generator: Adobe Illustrator 24.1.2, SVG Export Plug-In . SVG Version: 6.00 Build 0)  -->
<svg version="1.1" id="Ebene_1" xmlns="http://www.w3.org/2000/svg" xmlns:xlink="http://www.w3.org/1999/xlink" x="0px" y="0px"
	 viewBox="0 0 94 103" style="enable-background:new 0 0 94 103;" xml:space="preserve">
<style type="text/css">
	.st0{fill:#00374D;}
	.st1{fill:#FFFFFF;}
</style>
<path id="Rounded_Rectangle_528_copy" class="st0" d="M41,0h10c16.6,0,30,13.4,30,30v10c0,16.6-13.4,30-30,30H41
	c-16.6,0-30-13.4-30-30V30C11,13.4,24.4,0,41,0z"/>
<g>
	<path class="st1" d="M41.6,33.8c-1.8-1.8-3.6-3.6-5.3-5.3c-1.1-1.1-2.2-2.1-3.2-3.3c-0.5-0.5-1-0.8-1.7-0.7c-1,0.2-1.5-0.3-2-1.1
		c-0.8-1.5-1.7-2.9-2.5-4.2c-0.4-0.6-0.4-1.1,0.2-1.6s1.2-1.1,1.7-1.7c0.4-0.4,0.8-0.4,1.2-0.1c1.7,1,3.3,2,5,3
		c0.3,0.2,0.6,0.8,0.6,1.2c-0.1,1,0.3,1.7,1,2.4c2.8,2.7,5.5,5.5,8.4,8.4c0.4-0.5,0.7-0.9,1.1-1.3c1.3-1.3,2.6-2.6,3.9-4
		c0.2-0.2,0.4-0.7,0.3-1c-0.8-5.4,3.7-9.8,9-8.8c0.2,0,0.4,0.1,0.6,0.1c0.9,0.3,1.1,0.8,0.4,1.5c-0.8,0.9-1.7,1.7-2.5,2.6
		c-0.6,0.6-0.7,1.8,0,2.3c0.6,0.6,1.1,1.6,2.2,1.4c0.3-0.1,0.7-0.2,1-0.4c0.9-0.8,1.7-1.7,2.5-2.5c0.7-0.7,1.3-0.6,1.6,0.4
		c1.4,5.4-2.7,10-7.5,9.6c-1.4-0.1-2.3,0.2-3.2,1.2c-0.9,1.1-2,2-3.1,3c0.4,0.4,0.7,0.7,1.1,1c0.5-0.3,1-1,1.6-0.3
		c0.2,0.3,0,0.9-0.1,1.4c-0.1,0-0.2,0-0.3,0c1.7,1.5,3.4,3.1,5,4.6c1.7,1.6,3.5,3.2,5.2,4.8c2,1.8,2.1,4.8,0.2,6.7
		c-1.8,1.8-4.8,1.8-6.6-0.2c-3.2-3.4-6.3-6.8-9.4-10.2c-0.5,0.2-1,1-1.5,0.3c-0.2-0.3,0.1-1,0.1-1.5c0.1,0,0.2,0,0.3,0
		c-0.3-0.3-0.6-0.7-1-1.1c-1.4,1.4-2.8,2.8-4.2,4.2c-0.2,0.2-0.2,0.6-0.1,0.9c0.8,5.4-3.9,9.8-9.2,8.7c-0.2,0-0.3-0.1-0.5-0.1
		c-0.8-0.3-1-0.9-0.4-1.5c0.9-0.9,1.7-1.7,2.6-2.6c0.6-0.6,0.6-1.8,0-2.3c-0.6-0.6-1-1.6-2.1-1.4c-0.4,0.1-0.9,0.2-1.2,0.5
		c-0.8,0.8-1.6,1.6-2.4,2.4c-0.8,0.8-1.4,0.6-1.7-0.5c-1.4-5.4,3.2-10.3,8.7-9.4c0.3,0,0.7,0,0.9-0.2c1.7-1.7,3.4-3.4,5.1-5.1
		C41.5,34.1,41.6,34,41.6,33.8z M28.1,47.4c0.1-0.1,0.2-0.1,0.2-0.1c0.6-0.6,1.2-1.2,1.8-1.8c0.6-0.6,2.9-0.9,3.5-0.4
		c1.4,1.2,3,2.3,2.5,4.5c-0.1,0.4-0.3,0.9-0.6,1.3c-0.6,0.7-1.2,1.3-2,2c0.3,0,0.4,0.1,0.5,0.1c3.9,0.1,7-3.6,6.1-7.4
		c-0.2-0.8,0-1.4,0.6-2c4.7-4.6,9.4-9.3,14-14c0.5-0.6,1-0.7,1.8-0.5c2.5,0.6,4.6-0.2,6.2-2.2c0.9-1.2,1.3-2.6,1.1-4.2
		c-0.7,0.5-1.2,1.1-1.7,1.7s-1.1,0.7-1.8,0.8c-1.3,0.1-2.3-0.3-3.1-1.3c-0.2-0.3-0.5-0.5-0.8-0.8c-0.6-0.7-0.7-3-0.1-3.6
		c0.7-0.7,1.5-1.3,2.2-1.9c-0.1-0.1-0.1-0.2-0.2-0.3c-0.1,0-0.2,0-0.3-0.1c-4-0.2-7,3.6-6.1,7.4c0.2,0.8,0.1,1.3-0.5,1.8
		C46.7,31,42,35.7,37.3,40.5c-0.5,0.5-1,0.7-1.8,0.5C31.6,40,27.7,43.3,28.1,47.4z M49.2,41.7c3.2,3.4,6.3,6.9,9.5,10.3
		c1.2,1.3,3.1,1.2,4.3,0.1c1.2-1.2,1.2-3.1,0-4.4c-0.4-0.4-0.8-0.7-1.2-1.1c-3.1-2.8-6.1-5.6-9.2-8.4C51.5,39.4,50.4,40.5,49.2,41.7
		z M28.2,18.5c0.8,1.3,1.6,2.6,2.3,3.9c0.3,0.5,0.6,0.7,1.1,0.6c1-0.2,1.6,0.3,2.3,1c2.7,2.8,5.4,5.5,8.2,8.2
		c0.2,0.2,0.4,0.4,0.6,0.6c0.4-0.3,0.8-0.6,1.2-0.9c-0.3-0.3-0.5-0.6-0.8-0.8c-2.7-2.7-5.4-5.4-8.1-8.1c-0.6-0.6-1-1.2-0.9-2.1
		c0-0.3,0-0.8-0.2-0.9c-1.4-0.9-2.8-1.7-4.2-2.6C29.1,17.7,28.7,18.1,28.2,18.5z M50.5,36.2c-1.1,1.1-2.2,2.2-3.3,3.3
		c0.2,0.2,0.5,0.6,0.7,0.8c1.1-1.1,2.2-2.2,3.4-3.3C51,36.7,50.7,36.4,50.5,36.2z"/>
	<path class="st1" d="M50.6,29.5c0.7,0,1,0.5,0.8,1c-0.1,0.2-0.3,0.4-0.4,0.6c-3,3-5.9,5.9-8.9,8.9c-0.1,0.1-0.3,0.3-0.5,0.4
		c-0.3,0-0.7,0.1-0.8-0.1c-0.2-0.2-0.2-0.6-0.2-0.9c0-0.2,0.2-0.3,0.4-0.5c3-3,5.9-5.9,8.9-8.9C50.2,29.8,50.5,29.6,50.6,29.5z"/>
	<path class="st1" d="M39.1,40.9c0.3,0.4,0.7,0.8,0.7,1c-0.1,0.3-0.5,0.5-0.7,0.8c-0.2-0.3-0.6-0.5-0.7-0.8
		C38.4,41.6,38.8,41.3,39.1,40.9z"/>
	<path class="st1" d="M53.9,28.1c-0.5,0.3-0.8,0.7-1,0.6c-0.3-0.1-0.5-0.5-0.8-0.7c0.3-0.2,0.5-0.6,0.8-0.7
		C53.2,27.3,53.5,27.8,53.9,28.1z"/>
	<path class="st1" d="M53.5,41.7c0.3,0.2,0.6,0.3,0.8,0.5c2.1,2.1,4.3,4.2,6.4,6.4c0.4,0.4,0.7,0.9,0.2,1.3
		c-0.5,0.5-0.9,0.1-1.3-0.2c-2.1-2.1-4.3-4.2-6.4-6.4c-0.2-0.2-0.3-0.7-0.3-1.1C52.9,42,53.3,41.9,53.5,41.7z"/>
</g>
</svg>
