<?xml version="1.0" encoding="utf-8"?>
<!-- Generator: Adobe Illustrator 24.1.2, SVG Export Plug-In . SVG Version: 6.00 Build 0)  -->
<svg version="1.1" id="Ebene_1" xmlns="http://www.w3.org/2000/svg" xmlns:xlink="http://www.w3.org/1999/xlink" x="0px" y="0px"
	 viewBox="0 0 94 103" style="enable-background:new 0 0 94 103;" xml:space="preserve">
<style type="text/css">
	.st0{fill:url(#Rounded_Rectangle_528_copy_1_);}
	.st1{fill:#FFFFFF;}
</style>
<linearGradient id="Rounded_Rectangle_528_copy_1_" gradientUnits="userSpaceOnUse" x1="46" y1="-7.986111e-02" x2="46" y2="69.9201">
	<stop  offset="0" style="stop-color:#335F71"/>
	<stop  offset="0.4023" style="stop-color:#1E4F62"/>
	<stop  offset="1" style="stop-color:#00374D"/>
</linearGradient>
<path id="Rounded_Rectangle_528_copy" class="st0" d="M41,0h10c16.6,0,30,13.4,30,30v10c0,16.6-13.4,30-30,30H41
	c-16.6,0-30-13.4-30-30V30C11,13.4,24.4,0,41,0z"/>
<g>
	<path class="st1" d="M41.3,44c1.3,0,2.5,0,3.8,0c0-0.6,0-1.2,0-1.7c0-0.6,0.2-1.1,0.9-1.1c0.7,0,0.9,0.5,0.9,1.1c0,0.5,0,1.1,0,1.7
		c1.3,0,2.4,0,3.7,0c0.1-2.5,1.9-4.2,3.2-6.1c2.6-3.7,3.5-7.7,1.7-11.9c-1.7-4-4.9-6.2-9.2-6.3c-4.5-0.1-7.7,1.9-9.8,5.9
		c-0.2,0.3-0.2,0.8-0.5,1c-0.3,0.3-0.8,0.4-1.2,0.7c-0.1-0.4-0.5-0.9-0.4-1.3c0.6-1.8,1.6-3.5,3.1-4.8c3.7-3.4,9-4.3,13.6-2.2
		c4.5,2.1,7.2,6.7,7,11.7c-0.1,3-1.1,5.7-2.9,8.2c-3.3,4.6-2.9,3.2-2.9,9c0,1.3,0,2.7,0,4c0,2.5-1.6,4.7-4,5.7
		c-2.3,0.9-5.2,0.4-6.9-1.4c-1.3-1.3-2-2.9-1.9-4.8c0.1-2.1,0-4.2,0-6.4c0-1.5-0.4-2.8-1.3-4c-1.6-2-3.1-4.2-3.9-6.7
		c-0.2-0.6-0.4-1.2,0.3-1.5c0.8-0.3,1.1,0.2,1.3,0.9c0.6,2,1.7,3.7,2.9,5.4C40.1,40.5,41.3,42,41.3,44z M41.4,47.8
		c3.1,0,6.1,0,9.1,0c0-0.7,0-1.3,0-1.8c-3.1,0-6.1,0-9.1,0C41.4,46.6,41.4,47.1,41.4,47.8z M41.5,49.6c0,0.7,0,1.3,0,2
		c3.1,0,6,0,9.1,0c0-0.7,0-1.3,0-2C47.5,49.6,44.5,49.6,41.5,49.6z M41.9,53.5c0.7,1.7,2.4,2.7,4.3,2.7c1.8,0,3.4-1.1,3.9-2.7
		C47.4,53.5,44.7,53.5,41.9,53.5z"/>
	<path class="st1" d="M46.9,32.7c0,0.7,0.1,1.3,0,1.9c-0.1,0.4-0.5,0.9-0.9,1c-0.6,0.1-0.9-0.4-0.9-1c0-0.6,0-1.1,0-1.9
		c-0.7,0-1.4,0-2.1,0c-0.6,0-1.2-0.3-1.1-0.9c0.1-0.4,0.7-0.9,1.1-0.9c1.9-0.1,3.9,0,5.8,0c0.7,0,1.2,0.2,1.2,1
		c0,0.7-0.5,0.9-1.2,0.9C48.3,32.7,47.6,32.7,46.9,32.7z"/>
	<path class="st1" d="M30.1,30.9c-0.4,0-0.9,0.1-1.3,0C28.4,30.7,28,30.3,28,30c0-0.3,0.4-0.8,0.7-0.8c0.9-0.1,1.8-0.1,2.7,0
		c0.3,0,0.8,0.6,0.7,0.8c-0.1,0.3-0.4,0.7-0.8,0.9C30.9,31,30.5,30.9,30.1,30.9C30.1,30.9,30.1,30.9,30.1,30.9z"/>
	<path class="st1" d="M61.9,30.9c-0.4,0-0.9,0.1-1.2,0c-0.3-0.1-0.7-0.5-0.8-0.9c0-0.2,0.4-0.8,0.7-0.8c0.9-0.1,1.8-0.1,2.6,0
		c0.3,0,0.7,0.6,0.7,0.9c0,0.3-0.5,0.7-0.8,0.8C62.8,31,62.3,30.9,61.9,30.9C61.9,30.9,61.9,30.9,61.9,30.9z"/>
	<path class="st1" d="M34.7,39.9c0.9,0.2,1.4,1,1,1.5c-0.6,0.8-1.3,1.5-2.1,2.1c-0.5,0.4-1.5-0.3-1.2-0.8
		C33,41.7,33.9,40.8,34.7,39.9z"/>
	<path class="st1" d="M33.8,16.9c0.3,0.2,0.6,0.2,0.8,0.4c0.6,0.5,1.2,1,1.6,1.6c0.2,0.3,0,0.8,0,1.3c-0.4,0-0.9,0.2-1.2,0
		c-0.7-0.5-1.2-1.1-1.7-1.7c-0.2-0.2-0.2-0.7-0.1-0.9C33.2,17.3,33.5,17.1,33.8,16.9z"/>
	<path class="st1" d="M58.8,43.7c-0.3-0.1-0.5-0.2-0.6-0.3c-0.6-0.6-1.2-1.1-1.7-1.8c-0.2-0.3-0.1-0.9,0.1-1.2
		c0.1-0.2,0.9-0.2,1.1,0c0.6,0.5,1.2,1,1.7,1.7c0.2,0.2,0.2,0.7,0.1,1C59.4,43.3,59.1,43.5,58.8,43.7z"/>
	<path class="st1" d="M59.1,17.9c-0.2,0.3-0.3,0.5-0.5,0.7c-0.5,0.5-1,1.1-1.5,1.5c-0.3,0.2-0.8,0.1-1.3,0.1c0-0.4-0.2-1,0-1.3
		c0.4-0.6,1-1.2,1.7-1.7c0.2-0.2,0.7-0.2,1-0.1C58.8,17.2,58.9,17.6,59.1,17.9z"/>
	<path class="st1" d="M45.1,14.1c0-0.4-0.1-0.9,0-1.3c0.1-0.3,0.5-0.8,0.8-0.8c0.3,0,0.8,0.4,0.9,0.7c0.1,0.8,0.1,1.6,0,2.4
		c-0.1,0.3-0.6,0.6-0.9,0.9c-0.3-0.3-0.6-0.6-0.8-1C45,14.9,45.1,14.5,45.1,14.1C45.1,14.1,45.1,14.1,45.1,14.1z"/>
	<path class="st1" d="M35.9,30c-0.6,0.4-1,0.8-1.3,0.8c-0.3,0-0.8-0.6-0.7-0.8c0.1-0.3,0.5-0.8,0.9-0.8C35,29.1,35.3,29.6,35.9,30z"
		/>
	<path class="st1" d="M47.2,38.3c-0.6,0.4-0.9,0.9-1.2,0.8c-0.4-0.1-0.8-0.5-0.9-0.8c0-0.2,0.5-0.8,0.8-0.8
		C46.3,37.5,46.6,37.9,47.2,38.3z"/>
</g>
</svg>
