<?xml version="1.0" encoding="utf-8"?>
<!-- Generator: Adobe Illustrator 24.1.2, SVG Export Plug-In . SVG Version: 6.00 Build 0)  -->
<svg version="1.1" id="Ebene_1" xmlns="http://www.w3.org/2000/svg" xmlns:xlink="http://www.w3.org/1999/xlink" x="0px" y="0px"
	 viewBox="0 0 94 103" style="enable-background:new 0 0 94 103;" xml:space="preserve">
<style type="text/css">
	.st0{fill:#FF4361;}
	.st1{fill:url(#Rounded_Rectangle_528_copy_1_);}
	.st2{display:none;fill-rule:evenodd;clip-rule:evenodd;fill:#FFFFFF;}
	.st3{display:none;}
	.st4{display:inline;fill:#00374D;}
	.st5{display:inline;}
	.st6{display:inline;fill:#335F71;}
	.st7{fill:#FFFFFF;}
</style>
<path id="Rounded_Rectangle_528" class="st0" d="M46.5,16L46.5,16C61.1,16,73,27.9,73,42.5l0,0C73,57.1,61.1,69,46.5,69l0,0
	C31.9,69,20,57.1,20,42.5l0,0C20,27.9,31.9,16,46.5,16z"/>
<linearGradient id="Rounded_Rectangle_528_copy_1_" gradientUnits="userSpaceOnUse" x1="46" y1="0.4523" x2="46" y2="70.4523">
	<stop  offset="0" style="stop-color:#335F71"/>
	<stop  offset="1" style="stop-color:#00374D"/>
</linearGradient>
<path id="Rounded_Rectangle_528_copy" class="st1" d="M41,0h10c16.6,0,30,13.4,30,30v10c0,16.6-13.4,30-30,30H41
	c-16.6,0-30-13.4-30-30V30C11,13.4,24.4,0,41,0z"/>
<path class="st2" d="M54.9,30c-0.1-0.2-0.3-0.3-0.5-0.3h-6.6l6.5-10.8c0.1-0.2,0.1-0.4,0-0.6c-0.1-0.2-0.3-0.3-0.5-0.3h-8.9
	c-0.2,0-0.4,0.1-0.5,0.3l-8.4,17.5c-0.1,0.2-0.1,0.4,0,0.6c0.1,0.2,0.3,0.3,0.5,0.3h5.7L36,52.2c-0.1,0.3,0,0.6,0.2,0.7
	c0.1,0.1,0.2,0.1,0.3,0.1c0.2,0,0.3-0.1,0.4-0.2l17.9-22.2C55,30.5,55,30.2,54.9,30z"/>
<g class="st3">
	<rect x="-27.9" y="-4.3" class="st4" width="12.8" height="13.3"/>
	<g id="rmFiHU.tif" class="st5">
		
			<image style="overflow:visible;" width="171" height="142" id="Layer_0_1_" xlink:href="A31089498DBAA7E0.png"  transform="matrix(0.1361 0 0 0.1361 -16.0362 -24.9313)">
		</image>
	</g>
	<rect x="-27.9" y="12.8" class="st6" width="12.8" height="13.3"/>
</g>
<g>
	<path class="st7" d="M51.3,41.6c-7,5.3-15.3,3.2-19.6-2c-4.6-5.7-4.2-13.6,1-18.8c4.9-4.9,12.8-5.3,18.5-0.8
		c5.2,4.2,7.4,12.6,2.1,19.6c0.2,0.2,0.4,0.4,0.6,0.6c3.1,3.1,6.2,6.2,9.3,9.3c0.8,0.8,0.8,1,0,1.7c-0.1,0.1-0.3,0.3-0.4,0.4
		c-0.7,0.7-0.9,0.7-1.6,0c-3.1-3.1-6.2-6.2-9.3-9.3C51.7,42.1,51.6,41.9,51.3,41.6z M31.5,30.7c-0.1,6.1,4.9,11.1,11,11.1
		c6,0,11-5,11-11c0-6-4.9-11-10.9-11C36.5,19.8,31.6,24.6,31.5,30.7z"/>
</g>
</svg>
